{"asset":{"version":"2.0","generator":"babylon.js glTF exporter for 3dsmax 2021 v20220628.14"},"scene":0,"scenes":[{"nodes":[0,1]}],"nodes":[{"mesh":0,"translation":[9.521061,2.080109E-05,-21.6910934],"rotation":[0.0,0.7071068,0.0,0.7071067],"scale":[100.0,100.0,100.0],"name":"low_poly_interior.282"},{"translation":[1.87592041,-8.18788052,-31.86558],"rotation":[0.484316617,0.3063731,-0.18591179,0.798128963],"scale":[1.0,1.0,0.99999994],"name":"PhysCamera001.Target"}],"meshes":[{"primitives":[{"attributes":{"POSITION":1,"NORMAL":2,"TEXCOORD_0":3},"indices":0,"material":0}],"name":"low_poly_interior.282"}],"accessors":[{"bufferView":0,"componentType":5123,"count":300,"type":"SCALAR","name":"accessorIndices"},{"bufferView":1,"componentType":5126,"count":162,"max":[0.007945405,0.00723242527,0.00334222242],"min":[-0.007902078,-3.725291E-12,-0.00328744436],"type":"VEC3","name":"accessorPositions"},{"bufferView":1,"byteOffset":1944,"componentType":5126,"count":162,"type":"VEC3","name":"accessorNormals"},{"bufferView":2,"componentType":5126,"count":162,"type":"VEC2","name":"accessorUVs"}],"bufferViews":[{"buffer":0,"byteLength":600,"name":"bufferViewScalar"},{"buffer":0,"byteOffset":600,"byteLength":3888,"byteStride":12,"name":"bufferViewFloatVec3"},{"buffer":0,"byteOffset":4488,"byteLength":1296,"byteStride":8,"name":"bufferViewFloatVec2"}],"buffers":[{"uri":"desk.bin","byteLength":5784}],"materials":[{"pbrMetallicRoughness":{"baseColorTexture":{"index":0},"metallicFactor":0.0,"roughnessFactor":0.2363239},"name":"low_poly_interior"}],"textures":[{"sampler":0,"source":0,"name":"low_poly_interior.png"}],"images":[{"uri":"low_poly_interior.png"}],"samplers":[{"magFilter":9729,"minFilter":9987}]}