{"asset":{"version":"2.0","generator":"babylon.js glTF exporter for 3dsmax 2021 v20220628.14"},"scene":0,"scenes":[{"nodes":[0]}],"nodes":[{"mesh":0,"rotation":[0.7071068,0.0,0.0,0.7071067],"name":"room_ini"}],"meshes":[{"primitives":[{"attributes":{"POSITION":1,"NORMAL":2,"TEXCOORD_0":3},"indices":0}],"name":"room_ini"}],"accessors":[{"bufferView":0,"componentType":5123,"count":72,"type":"SCALAR","name":"accessorIndices"},{"bufferView":1,"componentType":5126,"count":42,"max":[2.0,2.0,0.1],"min":[-0.1,-0.1,-2.0],"type":"VEC3","name":"accessorPositions"},{"bufferView":1,"byteOffset":504,"componentType":5126,"count":42,"type":"VEC3","name":"accessorNormals"},{"bufferView":2,"componentType":5126,"count":42,"type":"VEC2","name":"accessorUVs"}],"bufferViews":[{"buffer":0,"byteLength":144,"name":"bufferViewScalar"},{"buffer":0,"byteOffset":144,"byteLength":1008,"byteStride":12,"name":"bufferViewFloatVec3"},{"buffer":0,"byteOffset":1152,"byteLength":336,"byteStride":8,"name":"bufferViewFloatVec2"}],"buffers":[{"uri":"map_ini.bin","byteLength":1488}]}