{"asset":{"version":"2.0","generator":"babylon.js glTF exporter for 3dsmax 2021 v20220628.14"},"scene":0,"scenes":[{"nodes":[0,1]}],"nodes":[{"mesh":0,"translation":[0,0,0],"rotation":[-0.911934,-0.136564761,0.382677734,0.0573077],"scale":[100.000008,100.000008,100.0],"name":"low_poly_interior.283"},{"translation":[1.26245916,-5.10539961,-33.47247],"rotation":[0.484316617,0.3063731,-0.18591179,0.798128963],"scale":[1.0,1.0,0.99999994],"name":"PhysCamera001.Target"}],"meshes":[{"primitives":[{"attributes":{"POSITION":1,"NORMAL":2,"TEXCOORD_0":3},"indices":0,"material":0}],"name":"low_poly_interior.283"}],"accessors":[{"bufferView":0,"componentType":5123,"count":582,"type":"SCALAR","name":"accessorIndices"},{"bufferView":1,"componentType":5126,"count":272,"max":[0.00182440237,0.000177674767,0.000637747755],"min":[-0.0005799344,-0.00234080967,-0.0006377479],"type":"VEC3","name":"accessorPositions"},{"bufferView":1,"byteOffset":3264,"componentType":5126,"count":272,"type":"VEC3","name":"accessorNormals"},{"bufferView":2,"componentType":5126,"count":272,"type":"VEC2","name":"accessorUVs"}],"bufferViews":[{"buffer":0,"byteLength":1164,"name":"bufferViewScalar"},{"buffer":0,"byteOffset":1164,"byteLength":6528,"byteStride":12,"name":"bufferViewFloatVec3"},{"buffer":0,"byteOffset":7692,"byteLength":2176,"byteStride":8,"name":"bufferViewFloatVec2"}],"buffers":[{"uri":"stand_small.bin","byteLength":9868}],"materials":[{"pbrMetallicRoughness":{"baseColorTexture":{"index":0},"metallicFactor":0.0,"roughnessFactor":0.2363239},"name":"low_poly_interior"}],"textures":[{"sampler":0,"source":0,"name":"low_poly_interior.png"}],"images":[{"uri":"low_poly_interior.png"}],"samplers":[{"magFilter":9729,"minFilter":9987}]}